<svg width="148" height="24" viewBox="0 0 148 24" fill="none" xmlns="http://www.w3.org/2000/svg">
<path fill-rule="evenodd" clip-rule="evenodd" d="M39.5823 22.6216C39.4182 23.0521 39.213 23.3185 38.9668 23.421V23.7285H47.2771V23.421C47.0309 23.3185 46.8257 23.0521 46.6615 22.6216C46.4974 22.1707 46.364 21.6275 46.2614 20.9921C46.1793 20.3566 46.1178 19.6597 46.0767 18.9013C46.0562 18.1429 46.0459 17.3948 46.0459 16.6568V0.976273L45.892 0.884033C45.7074 1.171 45.3175 1.47846 44.7224 1.80642C44.1274 2.13438 43.4708 2.44184 42.7526 2.72881C42.0344 3.01577 41.3162 3.26174 40.598 3.46672C39.9004 3.67169 39.3566 3.80492 38.9668 3.86642V4.17388C39.4797 4.39935 39.808 4.95279 39.9517 5.83418C40.1158 6.71557 40.1979 7.90442 40.1979 9.40074V16.6568C40.1979 17.3948 40.1774 18.1429 40.1364 18.9013C40.1158 19.6597 40.0543 20.3566 39.9517 20.9921C39.8696 21.6275 39.7465 22.1707 39.5823 22.6216ZM0.192369 2.20612H6.50207L11.5498 13.6745L16.1667 2.20612H23.2459V2.51358C22.9996 2.61607 22.7945 2.89279 22.6303 3.34373C22.4661 3.77418 22.3328 4.30711 22.2302 4.94254C22.1481 5.57796 22.0865 6.27487 22.0455 7.03328C22.025 7.79169 22.0147 8.53984 22.0147 9.27775V16.6568C22.0147 17.3948 22.025 18.1429 22.0455 18.9013C22.0865 19.6597 22.1481 20.3566 22.2302 20.9921C22.3328 21.6275 22.4661 22.1707 22.6303 22.6216C22.7945 23.0521 22.9996 23.3185 23.2459 23.421V23.7285H14.9355V23.421C15.1818 23.3185 15.387 23.0521 15.5511 22.6216C15.7153 22.1707 15.8384 21.6275 15.9205 20.9921C16.0231 20.3566 16.0846 19.6597 16.1051 18.9013C16.1462 18.1429 16.1667 17.3948 16.1667 16.6568V7.06402L10.5341 22.9906H10.3187L2.99326 7.67895C2.89067 7.49447 2.79833 7.32024 2.71625 7.15626L2.70076 16.6568C2.70076 17.3948 2.71102 18.1429 2.73153 18.9013C2.77257 19.6597 2.83413 20.3566 2.91621 20.9921C3.01881 21.6275 3.15218 22.1707 3.31634 22.6216C3.48049 23.0521 3.68569 23.3185 3.93192 23.421V23.7285H0V23.421C0.246232 23.3185 0.451426 23.0521 0.615581 22.6216C0.779736 22.1707 0.902852 21.6275 0.98493 20.9921C1.08753 20.3566 1.14908 19.6597 1.1696 18.9013C1.21064 18.1429 1.23116 17.3948 1.23116 16.6568L1.11574 3.89716C0.787431 3.26174 0.47964 2.80055 0.192369 2.51358V2.20612ZM31.4574 23.79C30.3288 23.79 29.2823 23.6055 28.3179 23.2365C27.374 22.8471 26.5533 22.3039 25.8556 21.607C25.1785 20.9101 24.645 20.0902 24.2551 19.1473C23.8857 18.1839 23.7011 17.1385 23.7011 16.0112C23.7011 14.7813 23.9165 13.6847 24.3474 12.7213C24.7783 11.7579 25.3631 10.9483 26.1018 10.2924C26.8405 9.61596 27.6921 9.10353 28.6565 8.75507C29.6414 8.38611 30.6674 8.20164 31.7344 8.20164C32.6988 8.20164 33.5606 8.33487 34.3198 8.60134C35.0791 8.86781 35.7254 9.21626 36.2589 9.64671C36.8129 10.0772 37.2336 10.5793 37.5209 11.1533C37.8081 11.7067 37.9518 12.2909 37.9518 12.9058C37.9518 13.6027 37.7671 14.2689 37.3977 14.9043C37.0489 15.5397 36.5872 16.1034 36.0127 16.5954C35.4381 17.0873 34.7918 17.487 34.0736 17.7945C33.3554 18.0814 32.6372 18.2249 31.9191 18.2249C31.283 18.2249 30.6571 18.0814 30.0416 17.7945C30.4314 18.7783 30.9854 19.5675 31.7036 20.1619C32.4218 20.7563 33.3452 21.0536 34.4737 21.0536C35.2535 21.0536 36.0229 20.8896 36.7822 20.5616C37.5414 20.2337 38.0954 19.711 38.4442 18.9936L38.6597 19.2088C38.0851 20.6436 37.1618 21.771 35.8896 22.5909C34.6379 23.3903 33.1605 23.79 31.4574 23.79ZM31.1188 8.5091C30.7495 8.5091 30.3596 8.96004 29.9492 9.86193C29.5593 10.7433 29.3644 12.0142 29.3644 13.6745C29.3644 14.3509 29.4055 15.0068 29.4875 15.6422C29.5696 16.2571 29.703 16.8413 29.8877 17.3948C29.9492 17.4153 30.0108 17.4255 30.0723 17.4255H30.2878C30.7392 17.4255 31.1086 17.2923 31.3958 17.0258C31.7036 16.7593 31.9499 16.4109 32.1345 15.9804C32.3192 15.55 32.4423 15.0785 32.5039 14.5661C32.586 14.0332 32.627 13.5207 32.627 13.0288C32.627 12.4549 32.586 11.9014 32.5039 11.3685C32.4218 10.8151 32.3089 10.3334 32.1653 9.92343C32.0422 9.49298 31.8883 9.15477 31.7036 8.9088C31.5189 8.64233 31.324 8.5091 31.1188 8.5091ZM55.3496 23.7592C54.0774 23.7592 52.9591 23.5645 51.9947 23.175C51.0508 22.7856 50.2608 22.2527 49.6247 21.5762C49.0091 20.8793 48.5372 20.0697 48.2089 19.1473C47.9011 18.2044 47.7472 17.2 47.7472 16.1342C47.7472 15.0683 47.9011 14.0639 48.2089 13.121C48.5167 12.1577 48.9784 11.3173 49.5939 10.5998C50.23 9.86193 51.02 9.27775 51.9639 8.84731C52.9078 8.41686 54.0261 8.20164 55.3188 8.20164C56.6116 8.20164 57.7299 8.41686 58.6738 8.84731C59.6382 9.27775 60.4282 9.85168 61.0437 10.5691C61.6798 11.2865 62.1518 12.1269 62.4596 13.0903C62.7879 14.0537 62.9521 15.0683 62.9521 16.1342C62.9521 17.1795 62.7981 18.1737 62.4904 19.1165C62.1826 20.0389 61.7106 20.8486 61.0745 21.5455C60.4589 22.2219 59.6689 22.7651 58.7045 23.175C57.7606 23.5645 56.6423 23.7592 55.3496 23.7592ZM63.4036 23.421V23.7285H71.714V23.421C71.4677 23.3185 71.2625 23.0521 71.0984 22.6216C70.9342 22.1707 70.8009 21.6275 70.6983 20.9921C70.6162 20.3566 70.5546 19.6597 70.5136 18.9013C70.4931 18.1429 70.4828 17.3948 70.4828 16.6568V15.5192C70.4828 14.6583 70.5341 13.9307 70.6367 13.3363C70.7598 12.7418 70.9035 12.2601 71.0676 11.8912C71.2523 11.5017 71.437 11.225 71.6216 11.061C71.8268 10.8971 72.0012 10.8151 72.1449 10.8151C72.4321 10.8151 72.7092 11.0713 72.9759 11.5837C73.2632 12.0757 73.4068 12.6906 73.4068 13.4285V16.6568C73.4068 17.3948 73.3863 18.1429 73.3453 18.9013C73.3247 19.6597 73.2632 20.3566 73.1606 20.9921C73.0785 21.6275 72.9554 22.1707 72.7912 22.6216C72.6271 23.0521 72.4219 23.3185 72.1757 23.421V23.7285H80.486V23.421C80.2398 23.3185 80.0346 23.0521 79.8704 22.6216C79.7063 22.1707 79.5729 21.6275 79.4703 20.9921C79.3882 20.3566 79.3267 19.6597 79.2856 18.9013C79.2651 18.1429 79.2548 17.3948 79.2548 16.6568V13.49C79.2548 12.7316 79.142 12.0347 78.9163 11.3992C78.7111 10.7433 78.4135 10.1796 78.0237 9.7082C77.6543 9.23676 77.2132 8.86781 76.7002 8.60134C76.2077 8.33487 75.6639 8.20164 75.0689 8.20164C74.5354 8.20164 74.0121 8.31437 73.4992 8.53985C73.0067 8.76532 72.5553 9.08303 72.1449 9.49298C71.7345 9.90293 71.3857 10.3949 71.0984 10.9688C70.8111 11.5222 70.6059 12.1372 70.4828 12.8136V8.0479L70.3289 7.95567C70.1442 8.24263 69.7544 8.55009 69.1593 8.87805C68.5642 9.20601 67.9076 9.51348 67.1895 9.80044C66.4713 10.0874 65.7531 10.3334 65.0349 10.5383C64.3373 10.7433 63.7935 10.8766 63.4036 10.9381V11.2455C63.9166 11.471 64.2449 12.0244 64.3886 12.9058C64.5527 13.7872 64.6348 14.9761 64.6348 16.4724V16.6568C64.6348 17.3948 64.6143 18.1429 64.5732 18.9013C64.5527 19.6597 64.4912 20.3566 64.3886 20.9921C64.3065 21.6275 64.1834 22.1707 64.0192 22.6216C63.8551 23.0521 63.6499 23.3185 63.4036 23.421ZM51.2956 15.9184C52.2491 15.5704 53.0263 15.092 53.6274 14.4831C54.2492 13.8524 54.7985 13.0043 55.2752 11.9387C55.752 13.0043 56.2909 13.8524 56.892 14.4831C57.5138 15.092 58.3014 15.5704 59.2549 15.9184C58.3014 16.2663 57.5138 16.7556 56.892 17.3863C56.2909 17.9952 55.752 18.8324 55.2752 19.898C54.7985 18.8324 54.2492 17.9952 53.6274 17.3863C53.0263 16.7556 52.2491 16.2663 51.2956 15.9184Z" fill="#1D3108"/>
<path d="M81.8337 15.9568C81.8337 14.3121 81.7439 13.0053 81.5643 12.0365C81.4071 11.0677 81.0479 10.4594 80.4867 10.2116V9.87362C80.9132 9.80603 81.5082 9.65958 82.2715 9.43428C83.0572 9.20898 83.8429 8.93861 84.6287 8.62319C85.4144 8.30777 86.1328 7.96981 86.7839 7.60933C87.4349 7.24884 87.8615 6.91089 88.0635 6.59546L88.2319 6.69685V11.9351C88.3666 11.1916 88.5911 10.5157 88.9054 9.90742C89.2197 9.27657 89.6013 8.73584 90.0503 8.28524C90.4993 7.83463 90.9932 7.48541 91.532 7.23758C92.0933 6.98974 92.6657 6.86583 93.2494 6.86583C93.8331 6.86583 94.3832 6.98974 94.8995 7.23758C95.4383 7.48541 95.9098 7.83463 96.3139 8.28524C96.7179 8.73584 97.0435 9.27657 97.2904 9.90742C97.5598 10.5157 97.7282 11.1916 97.7955 11.9351C97.9078 11.1916 98.1211 10.5157 98.4354 9.90742C98.7721 9.27657 99.165 8.73584 99.614 8.28524C100.085 7.83463 100.602 7.48541 101.163 7.23758C101.724 6.98974 102.297 6.86583 102.88 6.86583C103.509 6.86583 104.093 7.01227 104.632 7.30517C105.193 7.59806 105.675 8.00361 106.08 8.5218C106.506 9.04 106.832 9.65958 107.056 10.3806C107.303 11.079 107.427 11.845 107.427 12.6786V16.1596C107.427 16.9707 107.438 17.793 107.46 18.6266C107.505 19.4603 107.572 20.2263 107.662 20.9247C107.774 21.6232 107.92 22.2202 108.1 22.7159C108.28 23.189 108.504 23.4819 108.774 23.5946V23.9325H99.6813V23.5946C99.9507 23.4819 100.175 23.189 100.355 22.7159C100.534 22.2202 100.669 21.6232 100.759 20.9247C100.871 20.2263 100.939 19.4603 100.961 18.6266C101.006 17.793 101.028 16.9707 101.028 16.1596V12.6111C101.028 11.8 100.871 11.1241 100.557 10.5833C100.265 10.0201 99.962 9.73844 99.6477 9.73844C99.4905 9.73844 99.2997 9.82856 99.0752 10.0088C98.8731 10.189 98.6711 10.4932 98.469 10.9213C98.2894 11.3268 98.1323 11.8563 97.9976 12.5097C97.8853 13.163 97.8292 13.9629 97.8292 14.9091V16.1596C97.8292 16.9707 97.8404 17.793 97.8629 18.6266C97.9078 19.4603 97.9751 20.2263 98.0649 20.9247C98.1772 21.6232 98.3231 22.2202 98.5027 22.7159C98.6823 23.189 98.9068 23.4819 99.1762 23.5946V23.9325H90.084V23.5946C90.3534 23.4819 90.5779 23.189 90.7575 22.7159C90.9371 22.2202 91.0718 21.6232 91.1616 20.9247C91.2739 20.2263 91.3412 19.4603 91.3636 18.6266C91.4085 17.793 91.431 16.9707 91.431 16.1596V12.6111C91.431 11.8 91.2739 11.1241 90.9596 10.5833C90.6677 10.0201 90.3646 9.73844 90.0503 9.73844C89.8932 9.73844 89.7024 9.82856 89.4779 10.0088C89.2758 10.189 89.0738 10.4932 88.8717 10.9213C88.6921 11.3268 88.535 11.8563 88.4003 12.5097C88.288 13.163 88.2319 13.9629 88.2319 14.9091V16.1596C88.2319 16.9707 88.2431 17.793 88.2656 18.6266C88.3105 19.4603 88.3778 20.2263 88.4676 20.9247C88.5799 21.6232 88.7258 22.2202 88.9054 22.7159C89.085 23.189 89.3095 23.4819 89.5789 23.5946V23.9325H80.4867V23.5946C80.7561 23.4819 80.9806 23.189 81.1602 22.7159C81.3398 22.2202 81.4745 21.6232 81.5643 20.9247C81.6765 20.2263 81.7439 19.4603 81.7663 18.6266C81.8112 17.793 81.8337 16.9707 81.8337 16.1596V15.9568Z" fill="#1D3108"/>
<path d="M109.636 9.87362C110.062 9.80603 110.657 9.65958 111.421 9.43428C112.206 9.20898 112.992 8.93861 113.778 8.62319C114.564 8.30777 115.282 7.96981 115.933 7.60933C116.584 7.24884 117.011 6.91089 117.213 6.59546L117.381 6.69685V16.1596C117.381 16.9707 117.392 17.793 117.415 18.6266C117.46 19.4603 117.527 20.2263 117.617 20.9247C117.729 21.6232 117.875 22.2202 118.055 22.7159C118.234 23.189 118.459 23.4819 118.728 23.5946V23.9325H109.636V23.5946C109.905 23.4819 110.13 23.1778 110.309 22.6821C110.489 22.1639 110.624 21.5443 110.714 20.8233C110.826 20.1024 110.893 19.3138 110.916 18.4577C110.96 17.6015 110.983 16.7679 110.983 15.9568C110.983 14.3121 110.893 13.0053 110.714 12.0365C110.556 11.0677 110.197 10.4594 109.636 10.2116V9.87362Z" fill="#1D3108"/>
<path d="M119.061 23.9325V23.5946C119.331 23.4819 119.555 23.189 119.735 22.7159C119.915 22.2202 120.049 21.6232 120.139 20.9247C120.251 20.2263 120.319 19.4603 120.341 18.6266C120.386 17.793 120.408 16.9707 120.408 16.1596V15.9568C120.408 14.3121 120.319 13.0053 120.139 12.0365C119.982 11.0677 119.623 10.4594 119.061 10.2116V9.87362C119.488 9.80603 120.083 9.65958 120.846 9.43428C121.632 9.20898 122.418 8.93861 123.203 8.62319C123.989 8.30777 124.708 7.96981 125.359 7.60933C126.01 7.24884 126.436 6.91089 126.638 6.59546L126.807 6.69685V11.9351C126.941 11.1916 127.166 10.5157 127.48 9.90742C127.794 9.27657 128.176 8.73584 128.625 8.28524C129.074 7.83463 129.568 7.48541 130.107 7.23758C130.668 6.98974 131.24 6.86583 131.824 6.86583C132.475 6.86583 133.07 7.01227 133.609 7.30517C134.17 7.59806 134.653 8.00361 135.057 8.5218C135.484 9.04 135.809 9.65958 136.034 10.3806C136.28 11.079 136.404 11.845 136.404 12.6786V16.1596C136.404 16.9707 136.415 17.793 136.438 18.6266C136.483 19.4603 136.55 20.2263 136.64 20.9247C136.752 21.6232 136.898 22.2202 137.077 22.7159C137.257 23.189 137.482 23.4819 137.751 23.5946V23.9325H128.659V23.5946C128.928 23.4819 129.153 23.189 129.332 22.7159C129.512 22.2202 129.647 21.6232 129.736 20.9247C129.849 20.2263 129.916 19.4603 129.938 18.6266C129.983 17.793 130.006 16.9707 130.006 16.1596V12.6111C130.006 11.8 129.849 11.1241 129.534 10.5833C129.242 10.0201 128.939 9.73844 128.625 9.73844C128.468 9.73844 128.277 9.82856 128.053 10.0088C127.851 10.189 127.649 10.4932 127.446 10.9213C127.267 11.3268 127.11 11.8563 126.975 12.5097C126.863 13.163 126.807 13.9629 126.807 14.9091V16.1596C126.807 16.9707 126.818 17.793 126.84 18.6266C126.885 19.4603 126.953 20.2263 127.042 20.9247C127.155 21.6232 127.301 22.2202 127.48 22.7159C127.66 23.189 127.884 23.4819 128.154 23.5946V23.9325H119.061Z" fill="#1D3108"/>
<path d="M137.934 6.86583C138.405 6.79824 138.966 6.60673 139.618 6.29131C140.291 5.97588 140.953 5.55907 141.604 5.04087C142.278 4.50015 142.895 3.88056 143.456 3.18212C144.018 2.48368 144.444 1.71765 144.736 0.884033H145.073V5.80972H147.944V9.34979H145.073V17.8831C145.073 18.7618 145.129 19.3927 145.241 19.7757C145.376 20.1362 145.6 20.3277 145.915 20.3502C146.229 20.3727 146.521 20.2488 146.79 19.9785C147.082 19.7081 147.307 19.3476 147.464 18.897L147.666 19.2012C147.554 19.8996 147.34 20.5417 147.026 21.1275C146.712 21.7133 146.319 22.2202 145.847 22.6483C145.398 23.0764 144.893 23.4143 144.332 23.6622C143.771 23.8875 143.187 24.0001 142.581 24.0001C141.369 24.0001 140.414 23.5382 139.719 22.6145C139.023 21.6682 138.675 20.384 138.675 18.7618V9.16392C138.675 8.57813 138.63 8.13879 138.54 7.84589C138.45 7.553 138.248 7.3277 137.934 7.16999V6.86583Z" fill="#1D3108"/>
<path d="M112.362 1.97895C111.895 2.45254 111.29 2.82465 110.549 3.09528C111.29 3.3659 111.895 3.74647 112.362 4.23698C112.846 4.71057 113.273 5.36177 113.644 6.19056C114.015 5.36177 114.434 4.71057 114.901 4.23698C115.385 3.74647 115.998 3.3659 116.739 3.09528C115.998 2.82465 115.385 2.45254 114.901 1.97895C114.434 1.48844 114.015 0.828791 113.644 0C113.273 0.828791 112.846 1.48844 112.362 1.97895Z" fill="#1D3108"/>
</svg>
